# ProBuilder 4.4.0
# https://unity3d.com/unity/features/worldbuilding/probuilder
# 4/21/2021 3:48:10 PM

mtllib ./Package2.mtl
o Package2

g Package2
v 0.45 -0.35 0.5
v -0.45 -0.35 0.5
v 0.45 0.35 0.5
v -0.45 0.35 0.5
v -0.5 -0.35 0.45
v -0.5 -0.35 -0.45
v -0.5 0.35 0.45
v -0.5 0.35 -0.45
v -0.45 -0.35 -0.5
v 0.45 -0.35 -0.5
v -0.45 0.35 -0.5
v 0.45 0.35 -0.5
v 0.5 -0.35 -0.45
v 0.5 -0.35 0.45
v 0.5 0.35 -0.45
v 0.5 0.35 0.45
v 0.45 0.4 0.45
v -0.45 0.4 0.45
v 0.45 0.4 -0.45
v -0.45 0.4 -0.45
v 0.45 -0.4 -0.45
v -0.45 -0.4 -0.45
v 0.45 -0.4 0.45
v -0.45 -0.4 0.45

vt 0.45 -0.35
vt -0.45 -0.35
vt 0.45 0.35
vt -0.45 0.35
vt -0.45 0.45
vt 0.45 0.45
vt -0.45 -0.45
vt 0.45 -0.45
vt 0.45 0.106066
vt -0.45 0.106066
vt 0.45 0.03535533
vt -0.45 0.03535533
vt 0.03535535 -0.35
vt 0.03535535 0.35
vt -0.03535535 -0.35
vt -0.03535535 0.35
vt -0.45 -0.106066
vt 0.45 -0.106066
vt -0.45 -0.03535533
vt 0.45 -0.03535533
vt -0.106066 0.45
vt -0.106066 -0.45
vt -0.03535533 0.45
vt -0.03535533 -0.45
vt 0.106066 -0.45
vt 0.106066 0.45
vt 0.03535533 -0.45
vt 0.03535533 0.45
vt -0.03535535 0.1020621
vt 0 0.04082481
vt 0.03535535 0.1020621
vt 0.03535535 -0.1020621
vt -0.03535535 -0.1020621
vt 0 -0.04082481

vn 0.367001 -0.367001 0.8547634
vn -0.367001 -0.367001 0.8547634
vn 0.367001 0.367001 0.8547634
vn -0.367001 0.367001 0.8547634
vn -0.8547634 -0.367001 0.367001
vn -0.8547634 -0.367001 -0.367001
vn -0.8547634 0.367001 0.367001
vn -0.8547634 0.367001 -0.367001
vn -0.367001 -0.367001 -0.8547634
vn 0.367001 -0.367001 -0.8547634
vn -0.367001 0.367001 -0.8547634
vn 0.367001 0.367001 -0.8547634
vn 0.8547634 -0.367001 -0.367001
vn 0.8547634 -0.367001 0.367001
vn 0.8547634 0.367001 -0.367001
vn 0.8547634 0.367001 0.367001
vn 0.367001 0.8547634 0.367001
vn -0.367001 0.8547634 0.367001
vn 0.367001 0.8547634 -0.367001
vn -0.367001 0.8547634 -0.367001
vn 0.367001 -0.8547634 -0.367001
vn -0.367001 -0.8547634 -0.367001
vn 0.367001 -0.8547634 0.367001
vn -0.367001 -0.8547634 0.367001

usemtl PackageMat1
f 9/29/9 22/30/22 6/31/6
f 13/29/13 21/30/21 10/31/10
f 20/34/20 11/33/11 8/32/8
f 19/34/19 15/33/15 12/32/12
f 4/32/4 18/34/18 7/33/7
f 16/32/16 17/34/17 3/33/3
f 1/29/1 23/30/23 14/31/14
f 5/29/5 24/30/24 2/31/2
f 4/4/4 2/2/2 1/1/1
f 1/1/1 3/3/3 4/4/4
f 8/4/8 6/2/6 5/1/5
f 5/1/5 7/3/7 8/4/8
f 12/4/12 10/2/10 9/1/9
f 9/1/9 11/3/11 12/4/12
f 16/4/16 14/2/14 13/1/13
f 13/1/13 15/3/15 16/4/16
f 20/8/20 18/6/18 17/5/17
f 17/5/17 19/7/19 20/8/20
f 24/5/24 22/7/22 21/8/21
f 21/8/21 23/6/23 24/5/24
f 22/11/22 9/9/9 10/10/10
f 10/10/10 21/12/21 22/11/22
f 9/15/9 6/13/6 8/14/8
f 8/14/8 11/16/11 9/15/9
f 13/15/13 10/13/10 12/14/12
f 12/14/12 15/16/15 13/15/13
f 19/19/19 12/17/12 11/18/11
f 11/18/11 20/20/20 19/19/19
f 18/19/18 4/17/4 3/18/3
f 3/18/3 17/20/17 18/19/18
f 17/23/17 16/21/16 15/22/15
f 15/22/15 19/24/19 17/23/17
f 20/27/20 8/25/8 7/26/7
f 7/26/7 18/28/18 20/27/20
f 23/11/23 1/9/1 2/10/2
f 2/10/2 24/12/24 23/11/23
f 16/14/16 3/16/3 1/15/1
f 1/15/1 14/13/14 16/14/16
f 5/15/5 2/13/2 4/14/4
f 4/14/4 7/16/7 5/15/5
f 21/27/21 13/25/13 14/26/14
f 14/26/14 23/28/23 21/27/21
f 24/23/24 5/21/5 6/22/6
f 6/22/6 22/24/22 24/23/24

